{
    "asset" : {
        "generator" : "Khronos glTF Blender I/O v3.4.50",
        "version" : "2.0"
    },
    "scene" : 0,
    "scenes" : [
        {
            "name" : "Scene",
            "nodes" : [
                0,
                1,
                2,
                3,
                4,
                5,
                6,
                7,
                8,
                9,
                10,
                11,
                12,
                13,
                14,
                15,
                16,
                17
            ]
        }
    ],
    "nodes" : [
        {
            "mesh" : 0,
            "name" : "Material Lab Ground",
            "translation" : [
                0,
                -0.15000000596046448,
                0
            ]
        },
        {
            "mesh" : 1,
            "name" : "Material Lab Pad",
            "translation" : [
                0,
                0.019999999552965164,
                0
            ]
        },
        {
            "mesh" : 2,
            "name" : "Material panel",
            "translation" : [
                -6.300000190734863,
                2,
                3
            ]
        },
        {
            "mesh" : 3,
            "name" : "Panel base",
            "translation" : [
                -6.300000190734863,
                0.25,
                2.6500000953674316
            ]
        },
        {
            "mesh" : 4,
            "name" : "Material panel.001",
            "translation" : [
                -2.0999999046325684,
                2,
                3
            ]
        },
        {
            "mesh" : 5,
            "name" : "Panel base.001",
            "translation" : [
                -2.0999999046325684,
                0.25,
                2.6500000953674316
            ]
        },
        {
            "mesh" : 6,
            "name" : "Material panel.002",
            "translation" : [
                2.0999999046325684,
                2,
                3
            ]
        },
        {
            "mesh" : 7,
            "name" : "Panel base.002",
            "translation" : [
                2.0999999046325684,
                0.25,
                2.6500000953674316
            ]
        },
        {
            "mesh" : 8,
            "name" : "Material panel.003",
            "translation" : [
                6.300000190734863,
                2,
                3
            ]
        },
        {
            "mesh" : 9,
            "name" : "Panel base.003",
            "translation" : [
                6.300000190734863,
                0.25,
                2.6500000953674316
            ]
        },
        {
            "mesh" : 10,
            "name" : "Material panel.004",
            "translation" : [
                -6.300000190734863,
                2,
                -3
            ]
        },
        {
            "mesh" : 11,
            "name" : "Panel base.004",
            "translation" : [
                -6.300000190734863,
                0.25,
                -3.3499999046325684
            ]
        },
        {
            "mesh" : 12,
            "name" : "Material panel.005",
            "translation" : [
                -2.0999999046325684,
                2,
                -3
            ]
        },
        {
            "mesh" : 13,
            "name" : "Panel base.005",
            "translation" : [
                -2.0999999046325684,
                0.25,
                -3.3499999046325684
            ]
        },
        {
            "mesh" : 14,
            "name" : "Material panel.006",
            "translation" : [
                2.0999999046325684,
                2,
                -3
            ]
        },
        {
            "mesh" : 15,
            "name" : "Panel base.006",
            "translation" : [
                2.0999999046325684,
                0.25,
                -3.3499999046325684
            ]
        },
        {
            "mesh" : 16,
            "name" : "Material panel.007",
            "translation" : [
                6.300000190734863,
                2,
                -3
            ]
        },
        {
            "mesh" : 17,
            "name" : "Panel base.007",
            "translation" : [
                6.300000190734863,
                0.25,
                -3.3499999046325684
            ]
        }
    ],
    "materials" : [
        {
            "doubleSided" : true,
            "name" : "Concrete",
            "pbrMetallicRoughness" : {
                "metallicFactor" : 0,
                "roughnessFactor" : 0.7599999904632568
            }
        },
        {
            "doubleSided" : true,
            "name" : "Wall",
            "pbrMetallicRoughness" : {
                "metallicFactor" : 0.07999999821186066,
                "roughnessFactor" : 0.4000000059604645
            }
        },
        {
            "doubleSided" : true,
            "name" : "Dark metal",
            "pbrMetallicRoughness" : {
                "baseColorFactor" : [
                    0.02500000037252903,
                    0.03999999910593033,
                    0.04500000178813934,
                    1
                ],
                "metallicFactor" : 0.6499999761581421,
                "roughnessFactor" : 0.3199999928474426
            }
        },
        {
            "doubleSided" : true,
            "name" : "Brick",
            "pbrMetallicRoughness" : {
                "metallicFactor" : 0,
                "roughnessFactor" : 0.6800000071525574
            }
        },
        {
            "doubleSided" : true,
            "name" : "Roof",
            "pbrMetallicRoughness" : {
                "baseColorFactor" : [
                    0.03999999910593033,
                    0.07999999821186066,
                    0.09000000357627869,
                    1
                ],
                "metallicFactor" : 0.6000000238418579,
                "roughnessFactor" : 0.30000001192092896
            }
        },
        {
            "doubleSided" : true,
            "name" : "Asphalt",
            "pbrMetallicRoughness" : {
                "metallicFactor" : 0,
                "roughnessFactor" : 0.800000011920929
            }
        },
        {
            "doubleSided" : true,
            "name" : "Grass",
            "pbrMetallicRoughness" : {
                "metallicFactor" : 0,
                "roughnessFactor" : 0.8999999761581421
            }
        },
        {
            "doubleSided" : true,
            "name" : "Glass",
            "pbrMetallicRoughness" : {
                "baseColorFactor" : [
                    0.03999999910593033,
                    0.3499999940395355,
                    0.4300000071525574,
                    1
                ],
                "metallicFactor" : 0.20000000298023224,
                "roughnessFactor" : 0.1599999964237213
            }
        },
        {
            "doubleSided" : true,
            "name" : "Editor blue",
            "pbrMetallicRoughness" : {
                "baseColorFactor" : [
                    0.019999999552965164,
                    0.30000001192092896,
                    0.800000011920929,
                    1
                ],
                "metallicFactor" : 0.3499999940395355,
                "roughnessFactor" : 0.25999999046325684
            }
        }
    ],
    "meshes" : [
        {
            "name" : "Cube.013",
            "primitives" : [
                {
                    "attributes" : {
                        "POSITION" : 0,
                        "TEXCOORD_0" : 1,
                        "NORMAL" : 2
                    },
                    "indices" : 3,
                    "material" : 0
                }
            ]
        },
        {
            "name" : "Cube.014",
            "primitives" : [
                {
                    "attributes" : {
                        "POSITION" : 4,
                        "TEXCOORD_0" : 5,
                        "NORMAL" : 6
                    },
                    "indices" : 7,
                    "material" : 0
                }
            ]
        },
        {
            "name" : "Cube.015",
            "primitives" : [
                {
                    "attributes" : {
                        "POSITION" : 8,
                        "TEXCOORD_0" : 9,
                        "NORMAL" : 10
                    },
                    "indices" : 11,
                    "material" : 1
                }
            ]
        },
        {
            "name" : "Cube.016",
            "primitives" : [
                {
                    "attributes" : {
                        "POSITION" : 12,
                        "TEXCOORD_0" : 13,
                        "NORMAL" : 14
                    },
                    "indices" : 11,
                    "material" : 2
                }
            ]
        },
        {
            "name" : "Cube.017",
            "primitives" : [
                {
                    "attributes" : {
                        "POSITION" : 15,
                        "TEXCOORD_0" : 16,
                        "NORMAL" : 17
                    },
                    "indices" : 11,
                    "material" : 3
                }
            ]
        },
        {
            "name" : "Cube.018",
            "primitives" : [
                {
                    "attributes" : {
                        "POSITION" : 18,
                        "TEXCOORD_0" : 19,
                        "NORMAL" : 20
                    },
                    "indices" : 11,
                    "material" : 2
                }
            ]
        },
        {
            "name" : "Cube.019",
            "primitives" : [
                {
                    "attributes" : {
                        "POSITION" : 21,
                        "TEXCOORD_0" : 22,
                        "NORMAL" : 23
                    },
                    "indices" : 11,
                    "material" : 4
                }
            ]
        },
        {
            "name" : "Cube.020",
            "primitives" : [
                {
                    "attributes" : {
                        "POSITION" : 24,
                        "TEXCOORD_0" : 25,
                        "NORMAL" : 26
                    },
                    "indices" : 11,
                    "material" : 2
                }
            ]
        },
        {
            "name" : "Cube.021",
            "primitives" : [
                {
                    "attributes" : {
                        "POSITION" : 27,
                        "TEXCOORD_0" : 28,
                        "NORMAL" : 29
                    },
                    "indices" : 11,
                    "material" : 2
                }
            ]
        },
        {
            "name" : "Cube.022",
            "primitives" : [
                {
                    "attributes" : {
                        "POSITION" : 30,
                        "TEXCOORD_0" : 31,
                        "NORMAL" : 32
                    },
                    "indices" : 11,
                    "material" : 2
                }
            ]
        },
        {
            "name" : "Cube.023",
            "primitives" : [
                {
                    "attributes" : {
                        "POSITION" : 33,
                        "TEXCOORD_0" : 34,
                        "NORMAL" : 35
                    },
                    "indices" : 11,
                    "material" : 5
                }
            ]
        },
        {
            "name" : "Cube.024",
            "primitives" : [
                {
                    "attributes" : {
                        "POSITION" : 36,
                        "TEXCOORD_0" : 37,
                        "NORMAL" : 38
                    },
                    "indices" : 11,
                    "material" : 2
                }
            ]
        },
        {
            "name" : "Cube.025",
            "primitives" : [
                {
                    "attributes" : {
                        "POSITION" : 39,
                        "TEXCOORD_0" : 40,
                        "NORMAL" : 41
                    },
                    "indices" : 11,
                    "material" : 6
                }
            ]
        },
        {
            "name" : "Cube.026",
            "primitives" : [
                {
                    "attributes" : {
                        "POSITION" : 42,
                        "TEXCOORD_0" : 43,
                        "NORMAL" : 44
                    },
                    "indices" : 11,
                    "material" : 2
                }
            ]
        },
        {
            "name" : "Cube.027",
            "primitives" : [
                {
                    "attributes" : {
                        "POSITION" : 45,
                        "TEXCOORD_0" : 46,
                        "NORMAL" : 47
                    },
                    "indices" : 11,
                    "material" : 7
                }
            ]
        },
        {
            "name" : "Cube.028",
            "primitives" : [
                {
                    "attributes" : {
                        "POSITION" : 48,
                        "TEXCOORD_0" : 49,
                        "NORMAL" : 50
                    },
                    "indices" : 11,
                    "material" : 2
                }
            ]
        },
        {
            "name" : "Cube.029",
            "primitives" : [
                {
                    "attributes" : {
                        "POSITION" : 51,
                        "TEXCOORD_0" : 52,
                        "NORMAL" : 53
                    },
                    "indices" : 11,
                    "material" : 8
                }
            ]
        },
        {
            "name" : "Cube.030",
            "primitives" : [
                {
                    "attributes" : {
                        "POSITION" : 54,
                        "TEXCOORD_0" : 55,
                        "NORMAL" : 56
                    },
                    "indices" : 11,
                    "material" : 2
                }
            ]
        }
    ],
    "accessors" : [
        {
            "bufferView" : 0,
            "componentType" : 5126,
            "count" : 216,
            "max" : [
                12,
                0.15000000596046448,
                12
            ],
            "min" : [
                -12,
                -0.15000000596046448,
                -12
            ],
            "type" : "VEC3"
        },
        {
            "bufferView" : 1,
            "componentType" : 5126,
            "count" : 216,
            "type" : "VEC2"
        },
        {
            "bufferView" : 2,
            "componentType" : 5126,
            "count" : 216,
            "type" : "VEC3"
        },
        {
            "bufferView" : 3,
            "componentType" : 5123,
            "count" : 324,
            "type" : "SCALAR"
        },
        {
            "bufferView" : 4,
            "componentType" : 5126,
            "count" : 216,
            "max" : [
                9,
                0.05000000074505806,
                9
            ],
            "min" : [
                -9,
                -0.05000000074505806,
                -9
            ],
            "type" : "VEC3"
        },
        {
            "bufferView" : 5,
            "componentType" : 5126,
            "count" : 216,
            "type" : "VEC2"
        },
        {
            "bufferView" : 6,
            "componentType" : 5126,
            "count" : 216,
            "type" : "VEC3"
        },
        {
            "bufferView" : 7,
            "componentType" : 5123,
            "count" : 324,
            "type" : "SCALAR"
        },
        {
            "bufferView" : 8,
            "componentType" : 5126,
            "count" : 216,
            "max" : [
                1.75,
                1.899999976158142,
                0.125
            ],
            "min" : [
                -1.75,
                -1.899999976158142,
                -0.125
            ],
            "type" : "VEC3"
        },
        {
            "bufferView" : 9,
            "componentType" : 5126,
            "count" : 216,
            "type" : "VEC2"
        },
        {
            "bufferView" : 10,
            "componentType" : 5126,
            "count" : 216,
            "type" : "VEC3"
        },
        {
            "bufferView" : 11,
            "componentType" : 5123,
            "count" : 324,
            "type" : "SCALAR"
        },
        {
            "bufferView" : 12,
            "componentType" : 5126,
            "count" : 216,
            "max" : [
                1.899999976158142,
                0.25,
                0.5
            ],
            "min" : [
                -1.899999976158142,
                -0.25,
                -0.5
            ],
            "type" : "VEC3"
        },
        {
            "bufferView" : 13,
            "componentType" : 5126,
            "count" : 216,
            "type" : "VEC2"
        },
        {
            "bufferView" : 14,
            "componentType" : 5126,
            "count" : 216,
            "type" : "VEC3"
        },
        {
            "bufferView" : 15,
            "componentType" : 5126,
            "count" : 216,
            "max" : [
                1.75,
                1.899999976158142,
                0.125
            ],
            "min" : [
                -1.75,
                -1.899999976158142,
                -0.125
            ],
            "type" : "VEC3"
        },
        {
            "bufferView" : 16,
            "componentType" : 5126,
            "count" : 216,
            "type" : "VEC2"
        },
        {
            "bufferView" : 17,
            "componentType" : 5126,
            "count" : 216,
            "type" : "VEC3"
        },
        {
            "bufferView" : 18,
            "componentType" : 5126,
            "count" : 216,
            "max" : [
                1.899999976158142,
                0.25,
                0.5
            ],
            "min" : [
                -1.899999976158142,
                -0.25,
                -0.5
            ],
            "type" : "VEC3"
        },
        {
            "bufferView" : 19,
            "componentType" : 5126,
            "count" : 216,
            "type" : "VEC2"
        },
        {
            "bufferView" : 20,
            "componentType" : 5126,
            "count" : 216,
            "type" : "VEC3"
        },
        {
            "bufferView" : 21,
            "componentType" : 5126,
            "count" : 216,
            "max" : [
                1.75,
                1.899999976158142,
                0.125
            ],
            "min" : [
                -1.75,
                -1.899999976158142,
                -0.125
            ],
            "type" : "VEC3"
        },
        {
            "bufferView" : 22,
            "componentType" : 5126,
            "count" : 216,
            "type" : "VEC2"
        },
        {
            "bufferView" : 23,
            "componentType" : 5126,
            "count" : 216,
            "type" : "VEC3"
        },
        {
            "bufferView" : 24,
            "componentType" : 5126,
            "count" : 216,
            "max" : [
                1.899999976158142,
                0.25,
                0.5
            ],
            "min" : [
                -1.899999976158142,
                -0.25,
                -0.5
            ],
            "type" : "VEC3"
        },
        {
            "bufferView" : 25,
            "componentType" : 5126,
            "count" : 216,
            "type" : "VEC2"
        },
        {
            "bufferView" : 26,
            "componentType" : 5126,
            "count" : 216,
            "type" : "VEC3"
        },
        {
            "bufferView" : 27,
            "componentType" : 5126,
            "count" : 216,
            "max" : [
                1.75,
                1.899999976158142,
                0.125
            ],
            "min" : [
                -1.75,
                -1.899999976158142,
                -0.125
            ],
            "type" : "VEC3"
        },
        {
            "bufferView" : 28,
            "componentType" : 5126,
            "count" : 216,
            "type" : "VEC2"
        },
        {
            "bufferView" : 29,
            "componentType" : 5126,
            "count" : 216,
            "type" : "VEC3"
        },
        {
            "bufferView" : 30,
            "componentType" : 5126,
            "count" : 216,
            "max" : [
                1.899999976158142,
                0.25,
                0.5
            ],
            "min" : [
                -1.899999976158142,
                -0.25,
                -0.5
            ],
            "type" : "VEC3"
        },
        {
            "bufferView" : 31,
            "componentType" : 5126,
            "count" : 216,
            "type" : "VEC2"
        },
        {
            "bufferView" : 32,
            "componentType" : 5126,
            "count" : 216,
            "type" : "VEC3"
        },
        {
            "bufferView" : 33,
            "componentType" : 5126,
            "count" : 216,
            "max" : [
                1.75,
                1.899999976158142,
                0.125
            ],
            "min" : [
                -1.75,
                -1.899999976158142,
                -0.125
            ],
            "type" : "VEC3"
        },
        {
            "bufferView" : 34,
            "componentType" : 5126,
            "count" : 216,
            "type" : "VEC2"
        },
        {
            "bufferView" : 35,
            "componentType" : 5126,
            "count" : 216,
            "type" : "VEC3"
        },
        {
            "bufferView" : 36,
            "componentType" : 5126,
            "count" : 216,
            "max" : [
                1.899999976158142,
                0.25,
                0.5
            ],
            "min" : [
                -1.899999976158142,
                -0.25,
                -0.5
            ],
            "type" : "VEC3"
        },
        {
            "bufferView" : 37,
            "componentType" : 5126,
            "count" : 216,
            "type" : "VEC2"
        },
        {
            "bufferView" : 38,
            "componentType" : 5126,
            "count" : 216,
            "type" : "VEC3"
        },
        {
            "bufferView" : 39,
            "componentType" : 5126,
            "count" : 216,
            "max" : [
                1.75,
                1.899999976158142,
                0.125
            ],
            "min" : [
                -1.75,
                -1.899999976158142,
                -0.125
            ],
            "type" : "VEC3"
        },
        {
            "bufferView" : 40,
            "componentType" : 5126,
            "count" : 216,
            "type" : "VEC2"
        },
        {
            "bufferView" : 41,
            "componentType" : 5126,
            "count" : 216,
            "type" : "VEC3"
        },
        {
            "bufferView" : 42,
            "componentType" : 5126,
            "count" : 216,
            "max" : [
                1.899999976158142,
                0.25,
                0.5
            ],
            "min" : [
                -1.899999976158142,
                -0.25,
                -0.5
            ],
            "type" : "VEC3"
        },
        {
            "bufferView" : 43,
            "componentType" : 5126,
            "count" : 216,
            "type" : "VEC2"
        },
        {
            "bufferView" : 44,
            "componentType" : 5126,
            "count" : 216,
            "type" : "VEC3"
        },
        {
            "bufferView" : 45,
            "componentType" : 5126,
            "count" : 216,
            "max" : [
                1.75,
                1.899999976158142,
                0.125
            ],
            "min" : [
                -1.75,
                -1.899999976158142,
                -0.125
            ],
            "type" : "VEC3"
        },
        {
            "bufferView" : 46,
            "componentType" : 5126,
            "count" : 216,
            "type" : "VEC2"
        },
        {
            "bufferView" : 47,
            "componentType" : 5126,
            "count" : 216,
            "type" : "VEC3"
        },
        {
            "bufferView" : 48,
            "componentType" : 5126,
            "count" : 216,
            "max" : [
                1.899999976158142,
                0.25,
                0.5
            ],
            "min" : [
                -1.899999976158142,
                -0.25,
                -0.5
            ],
            "type" : "VEC3"
        },
        {
            "bufferView" : 49,
            "componentType" : 5126,
            "count" : 216,
            "type" : "VEC2"
        },
        {
            "bufferView" : 50,
            "componentType" : 5126,
            "count" : 216,
            "type" : "VEC3"
        },
        {
            "bufferView" : 51,
            "componentType" : 5126,
            "count" : 216,
            "max" : [
                1.75,
                1.899999976158142,
                0.125
            ],
            "min" : [
                -1.75,
                -1.899999976158142,
                -0.125
            ],
            "type" : "VEC3"
        },
        {
            "bufferView" : 52,
            "componentType" : 5126,
            "count" : 216,
            "type" : "VEC2"
        },
        {
            "bufferView" : 53,
            "componentType" : 5126,
            "count" : 216,
            "type" : "VEC3"
        },
        {
            "bufferView" : 54,
            "componentType" : 5126,
            "count" : 216,
            "max" : [
                1.899999976158142,
                0.25,
                0.5
            ],
            "min" : [
                -1.899999976158142,
                -0.25,
                -0.5
            ],
            "type" : "VEC3"
        },
        {
            "bufferView" : 55,
            "componentType" : 5126,
            "count" : 216,
            "type" : "VEC2"
        },
        {
            "bufferView" : 56,
            "componentType" : 5126,
            "count" : 216,
            "type" : "VEC3"
        }
    ],
    "bufferViews" : [
        {
            "buffer" : 0,
            "byteLength" : 2592,
            "byteOffset" : 0,
            "target" : 34962
        },
        {
            "buffer" : 0,
            "byteLength" : 1728,
            "byteOffset" : 2592,
            "target" : 34962
        },
        {
            "buffer" : 0,
            "byteLength" : 2592,
            "byteOffset" : 4320,
            "target" : 34962
        },
        {
            "buffer" : 0,
            "byteLength" : 648,
            "byteOffset" : 6912,
            "target" : 34963
        },
        {
            "buffer" : 0,
            "byteLength" : 2592,
            "byteOffset" : 7560,
            "target" : 34962
        },
        {
            "buffer" : 0,
            "byteLength" : 1728,
            "byteOffset" : 10152,
            "target" : 34962
        },
        {
            "buffer" : 0,
            "byteLength" : 2592,
            "byteOffset" : 11880,
            "target" : 34962
        },
        {
            "buffer" : 0,
            "byteLength" : 648,
            "byteOffset" : 14472,
            "target" : 34963
        },
        {
            "buffer" : 0,
            "byteLength" : 2592,
            "byteOffset" : 15120,
            "target" : 34962
        },
        {
            "buffer" : 0,
            "byteLength" : 1728,
            "byteOffset" : 17712,
            "target" : 34962
        },
        {
            "buffer" : 0,
            "byteLength" : 2592,
            "byteOffset" : 19440,
            "target" : 34962
        },
        {
            "buffer" : 0,
            "byteLength" : 648,
            "byteOffset" : 22032,
            "target" : 34963
        },
        {
            "buffer" : 0,
            "byteLength" : 2592,
            "byteOffset" : 22680,
            "target" : 34962
        },
        {
            "buffer" : 0,
            "byteLength" : 1728,
            "byteOffset" : 25272,
            "target" : 34962
        },
        {
            "buffer" : 0,
            "byteLength" : 2592,
            "byteOffset" : 27000,
            "target" : 34962
        },
        {
            "buffer" : 0,
            "byteLength" : 2592,
            "byteOffset" : 29592,
            "target" : 34962
        },
        {
            "buffer" : 0,
            "byteLength" : 1728,
            "byteOffset" : 32184,
            "target" : 34962
        },
        {
            "buffer" : 0,
            "byteLength" : 2592,
            "byteOffset" : 33912,
            "target" : 34962
        },
        {
            "buffer" : 0,
            "byteLength" : 2592,
            "byteOffset" : 36504,
            "target" : 34962
        },
        {
            "buffer" : 0,
            "byteLength" : 1728,
            "byteOffset" : 39096,
            "target" : 34962
        },
        {
            "buffer" : 0,
            "byteLength" : 2592,
            "byteOffset" : 40824,
            "target" : 34962
        },
        {
            "buffer" : 0,
            "byteLength" : 2592,
            "byteOffset" : 43416,
            "target" : 34962
        },
        {
            "buffer" : 0,
            "byteLength" : 1728,
            "byteOffset" : 46008,
            "target" : 34962
        },
        {
            "buffer" : 0,
            "byteLength" : 2592,
            "byteOffset" : 47736,
            "target" : 34962
        },
        {
            "buffer" : 0,
            "byteLength" : 2592,
            "byteOffset" : 50328,
            "target" : 34962
        },
        {
            "buffer" : 0,
            "byteLength" : 1728,
            "byteOffset" : 52920,
            "target" : 34962
        },
        {
            "buffer" : 0,
            "byteLength" : 2592,
            "byteOffset" : 54648,
            "target" : 34962
        },
        {
            "buffer" : 0,
            "byteLength" : 2592,
            "byteOffset" : 57240,
            "target" : 34962
        },
        {
            "buffer" : 0,
            "byteLength" : 1728,
            "byteOffset" : 59832,
            "target" : 34962
        },
        {
            "buffer" : 0,
            "byteLength" : 2592,
            "byteOffset" : 61560,
            "target" : 34962
        },
        {
            "buffer" : 0,
            "byteLength" : 2592,
            "byteOffset" : 64152,
            "target" : 34962
        },
        {
            "buffer" : 0,
            "byteLength" : 1728,
            "byteOffset" : 66744,
            "target" : 34962
        },
        {
            "buffer" : 0,
            "byteLength" : 2592,
            "byteOffset" : 68472,
            "target" : 34962
        },
        {
            "buffer" : 0,
            "byteLength" : 2592,
            "byteOffset" : 71064,
            "target" : 34962
        },
        {
            "buffer" : 0,
            "byteLength" : 1728,
            "byteOffset" : 73656,
            "target" : 34962
        },
        {
            "buffer" : 0,
            "byteLength" : 2592,
            "byteOffset" : 75384,
            "target" : 34962
        },
        {
            "buffer" : 0,
            "byteLength" : 2592,
            "byteOffset" : 77976,
            "target" : 34962
        },
        {
            "buffer" : 0,
            "byteLength" : 1728,
            "byteOffset" : 80568,
            "target" : 34962
        },
        {
            "buffer" : 0,
            "byteLength" : 2592,
            "byteOffset" : 82296,
            "target" : 34962
        },
        {
            "buffer" : 0,
            "byteLength" : 2592,
            "byteOffset" : 84888,
            "target" : 34962
        },
        {
            "buffer" : 0,
            "byteLength" : 1728,
            "byteOffset" : 87480,
            "target" : 34962
        },
        {
            "buffer" : 0,
            "byteLength" : 2592,
            "byteOffset" : 89208,
            "target" : 34962
        },
        {
            "buffer" : 0,
            "byteLength" : 2592,
            "byteOffset" : 91800,
            "target" : 34962
        },
        {
            "buffer" : 0,
            "byteLength" : 1728,
            "byteOffset" : 94392,
            "target" : 34962
        },
        {
            "buffer" : 0,
            "byteLength" : 2592,
            "byteOffset" : 96120,
            "target" : 34962
        },
        {
            "buffer" : 0,
            "byteLength" : 2592,
            "byteOffset" : 98712,
            "target" : 34962
        },
        {
            "buffer" : 0,
            "byteLength" : 1728,
            "byteOffset" : 101304,
            "target" : 34962
        },
        {
            "buffer" : 0,
            "byteLength" : 2592,
            "byteOffset" : 103032,
            "target" : 34962
        },
        {
            "buffer" : 0,
            "byteLength" : 2592,
            "byteOffset" : 105624,
            "target" : 34962
        },
        {
            "buffer" : 0,
            "byteLength" : 1728,
            "byteOffset" : 108216,
            "target" : 34962
        },
        {
            "buffer" : 0,
            "byteLength" : 2592,
            "byteOffset" : 109944,
            "target" : 34962
        },
        {
            "buffer" : 0,
            "byteLength" : 2592,
            "byteOffset" : 112536,
            "target" : 34962
        },
        {
            "buffer" : 0,
            "byteLength" : 1728,
            "byteOffset" : 115128,
            "target" : 34962
        },
        {
            "buffer" : 0,
            "byteLength" : 2592,
            "byteOffset" : 116856,
            "target" : 34962
        },
        {
            "buffer" : 0,
            "byteLength" : 2592,
            "byteOffset" : 119448,
            "target" : 34962
        },
        {
            "buffer" : 0,
            "byteLength" : 1728,
            "byteOffset" : 122040,
            "target" : 34962
        },
        {
            "buffer" : 0,
            "byteLength" : 2592,
            "byteOffset" : 123768,
            "target" : 34962
        }
    ],
    "buffers" : [
        {
            "byteLength" : 126360,
            "uri" : "02_Material_Lab.bin"
        }
    ]
}
