{
    "asset" : {
        "generator" : "Khronos glTF Blender I/O v3.4.50",
        "version" : "2.0"
    },
    "scene" : 0,
    "scenes" : [
        {
            "name" : "Scene",
            "nodes" : [
                0,
                1,
                2,
                3,
                4,
                5,
                6,
                7,
                8,
                9,
                10,
                11,
                12,
                13,
                14,
                15,
                16,
                17,
                18,
                19,
                20,
                21,
                22,
                23,
                24,
                25,
                26,
                27,
                28,
                29,
                30,
                31,
                32,
                33,
                34,
                35,
                36,
                37,
                38,
                39,
                40,
                41,
                42,
                43,
                44
            ]
        }
    ],
    "nodes" : [
        {
            "mesh" : 0,
            "name" : "Animation Corral Ground",
            "translation" : [
                0,
                -0.15000000596046448,
                0
            ]
        },
        {
            "mesh" : 1,
            "name" : "Animation Corral Pad",
            "translation" : [
                0,
                0.019999999552965164,
                0
            ]
        },
        {
            "mesh" : 2,
            "name" : "Corral floor",
            "translation" : [
                0,
                0.07999999821186066,
                0
            ]
        },
        {
            "mesh" : 3,
            "name" : "Fence",
            "translation" : [
                -8,
                0.699999988079071,
                6
            ]
        },
        {
            "mesh" : 4,
            "name" : "Fence.001",
            "translation" : [
                -8,
                0.699999988079071,
                -6
            ]
        },
        {
            "mesh" : 5,
            "name" : "Fence.002",
            "translation" : [
                -6,
                0.699999988079071,
                6
            ]
        },
        {
            "mesh" : 6,
            "name" : "Fence.003",
            "translation" : [
                -6,
                0.699999988079071,
                -6
            ]
        },
        {
            "mesh" : 7,
            "name" : "Fence.004",
            "translation" : [
                -4,
                0.699999988079071,
                6
            ]
        },
        {
            "mesh" : 8,
            "name" : "Fence.005",
            "translation" : [
                -4,
                0.699999988079071,
                -6
            ]
        },
        {
            "mesh" : 9,
            "name" : "Fence.006",
            "translation" : [
                -2,
                0.699999988079071,
                6
            ]
        },
        {
            "mesh" : 10,
            "name" : "Fence.007",
            "translation" : [
                -2,
                0.699999988079071,
                -6
            ]
        },
        {
            "mesh" : 11,
            "name" : "Fence.008",
            "translation" : [
                0,
                0.699999988079071,
                6
            ]
        },
        {
            "mesh" : 12,
            "name" : "Fence.009",
            "translation" : [
                0,
                0.699999988079071,
                -6
            ]
        },
        {
            "mesh" : 13,
            "name" : "Fence.010",
            "translation" : [
                2,
                0.699999988079071,
                6
            ]
        },
        {
            "mesh" : 14,
            "name" : "Fence.011",
            "translation" : [
                2,
                0.699999988079071,
                -6
            ]
        },
        {
            "mesh" : 15,
            "name" : "Fence.012",
            "translation" : [
                4,
                0.699999988079071,
                6
            ]
        },
        {
            "mesh" : 16,
            "name" : "Fence.013",
            "translation" : [
                4,
                0.699999988079071,
                -6
            ]
        },
        {
            "mesh" : 17,
            "name" : "Fence.014",
            "translation" : [
                6,
                0.699999988079071,
                6
            ]
        },
        {
            "mesh" : 18,
            "name" : "Fence.015",
            "translation" : [
                6,
                0.699999988079071,
                -6
            ]
        },
        {
            "mesh" : 19,
            "name" : "Fence.016",
            "translation" : [
                8,
                0.699999988079071,
                6
            ]
        },
        {
            "mesh" : 20,
            "name" : "Fence.017",
            "translation" : [
                8,
                0.699999988079071,
                -6
            ]
        },
        {
            "mesh" : 21,
            "name" : "Fence.018",
            "translation" : [
                -8,
                0.699999988079071,
                4
            ]
        },
        {
            "mesh" : 22,
            "name" : "Fence.019",
            "translation" : [
                8,
                0.699999988079071,
                4
            ]
        },
        {
            "mesh" : 23,
            "name" : "Fence.020",
            "translation" : [
                -8,
                0.699999988079071,
                2
            ]
        },
        {
            "mesh" : 24,
            "name" : "Fence.021",
            "translation" : [
                8,
                0.699999988079071,
                2
            ]
        },
        {
            "mesh" : 25,
            "name" : "Fence.022",
            "translation" : [
                -8,
                0.699999988079071,
                0
            ]
        },
        {
            "mesh" : 26,
            "name" : "Fence.023",
            "translation" : [
                8,
                0.699999988079071,
                0
            ]
        },
        {
            "mesh" : 27,
            "name" : "Fence.024",
            "translation" : [
                -8,
                0.699999988079071,
                -2
            ]
        },
        {
            "mesh" : 28,
            "name" : "Fence.025",
            "translation" : [
                8,
                0.699999988079071,
                -2
            ]
        },
        {
            "mesh" : 29,
            "name" : "Fence.026",
            "translation" : [
                -8,
                0.699999988079071,
                -4
            ]
        },
        {
            "mesh" : 30,
            "name" : "Fence.027",
            "translation" : [
                8,
                0.699999988079071,
                -4
            ]
        },
        {
            "mesh" : 31,
            "name" : "Mannequin torso",
            "translation" : [
                -5,
                1.2000000476837158,
                0
            ]
        },
        {
            "mesh" : 32,
            "name" : "Sphere",
            "translation" : [
                -5,
                2,
                0
            ]
        },
        {
            "mesh" : 33,
            "name" : "Animal body.001",
            "translation" : [
                -1,
                0.699999988079071,
                -2
            ]
        },
        {
            "mesh" : 34,
            "name" : "Animal leg.001",
            "translation" : [
                -1.4500000476837158,
                0.25,
                -1.7999999523162842
            ]
        },
        {
            "mesh" : 35,
            "name" : "Animal leg.002",
            "translation" : [
                -0.550000011920929,
                0.25,
                -2.200000047683716
            ]
        },
        {
            "mesh" : 36,
            "name" : "Animal body.002",
            "translation" : [
                3,
                0.9100000262260437,
                -2
            ]
        },
        {
            "mesh" : 37,
            "name" : "Animal leg.003",
            "translation" : [
                2.4149999618530273,
                0.32499998807907104,
                -1.7400000095367432
            ]
        },
        {
            "mesh" : 38,
            "name" : "Animal leg.004",
            "translation" : [
                3.5850000381469727,
                0.32499998807907104,
                -2.259999990463257
            ]
        },
        {
            "mesh" : 39,
            "name" : "Animal body.003",
            "translation" : [
                -1,
                0.38499999046325684,
                2
            ]
        },
        {
            "mesh" : 40,
            "name" : "Animal leg.005",
            "translation" : [
                -1.247499942779541,
                0.13750000298023224,
                2.109999895095825
            ]
        },
        {
            "mesh" : 41,
            "name" : "Animal leg.006",
            "translation" : [
                -0.7524999976158142,
                0.13750000298023224,
                1.8899999856948853
            ]
        },
        {
            "mesh" : 42,
            "name" : "Animal body",
            "translation" : [
                4,
                0.5600000023841858,
                2
            ]
        },
        {
            "mesh" : 43,
            "name" : "Animal leg.007",
            "translation" : [
                3.640000104904175,
                0.20000000298023224,
                2.1600000858306885
            ]
        },
        {
            "mesh" : 44,
            "name" : "Animal leg",
            "translation" : [
                4.360000133514404,
                0.20000000298023224,
                1.840000033378601
            ]
        }
    ],
    "materials" : [
        {
            "doubleSided" : true,
            "name" : "Grass",
            "pbrMetallicRoughness" : {
                "metallicFactor" : 0,
                "roughnessFactor" : 0.8999999761581421
            }
        },
        {
            "doubleSided" : true,
            "name" : "Concrete",
            "pbrMetallicRoughness" : {
                "metallicFactor" : 0,
                "roughnessFactor" : 0.7599999904632568
            }
        },
        {
            "doubleSided" : true,
            "name" : "Dark metal",
            "pbrMetallicRoughness" : {
                "baseColorFactor" : [
                    0.02500000037252903,
                    0.03999999910593033,
                    0.04500000178813934,
                    1
                ],
                "metallicFactor" : 0.6499999761581421,
                "roughnessFactor" : 0.3199999928474426
            }
        },
        {
            "doubleSided" : true,
            "name" : "Editor blue",
            "pbrMetallicRoughness" : {
                "baseColorFactor" : [
                    0.019999999552965164,
                    0.30000001192092896,
                    0.800000011920929,
                    1
                ],
                "metallicFactor" : 0.3499999940395355,
                "roughnessFactor" : 0.25999999046325684
            }
        },
        {
            "doubleSided" : true,
            "name" : "Brick",
            "pbrMetallicRoughness" : {
                "metallicFactor" : 0,
                "roughnessFactor" : 0.6800000071525574
            }
        },
        {
            "doubleSided" : true,
            "name" : "Roof",
            "pbrMetallicRoughness" : {
                "baseColorFactor" : [
                    0.03999999910593033,
                    0.07999999821186066,
                    0.09000000357627869,
                    1
                ],
                "metallicFactor" : 0.6000000238418579,
                "roughnessFactor" : 0.30000001192092896
            }
        }
    ],
    "meshes" : [
        {
            "name" : "Cube.066",
            "primitives" : [
                {
                    "attributes" : {
                        "POSITION" : 0,
                        "TEXCOORD_0" : 1,
                        "NORMAL" : 2
                    },
                    "indices" : 3,
                    "material" : 0
                }
            ]
        },
        {
            "name" : "Cube.067",
            "primitives" : [
                {
                    "attributes" : {
                        "POSITION" : 4,
                        "TEXCOORD_0" : 5,
                        "NORMAL" : 6
                    },
                    "indices" : 7,
                    "material" : 1
                }
            ]
        },
        {
            "name" : "Cube.068",
            "primitives" : [
                {
                    "attributes" : {
                        "POSITION" : 8,
                        "TEXCOORD_0" : 9,
                        "NORMAL" : 10
                    },
                    "indices" : 11,
                    "material" : 0
                }
            ]
        },
        {
            "name" : "Cube.069",
            "primitives" : [
                {
                    "attributes" : {
                        "POSITION" : 12,
                        "TEXCOORD_0" : 13,
                        "NORMAL" : 14
                    },
                    "indices" : 15,
                    "material" : 2
                }
            ]
        },
        {
            "name" : "Cube.070",
            "primitives" : [
                {
                    "attributes" : {
                        "POSITION" : 16,
                        "TEXCOORD_0" : 17,
                        "NORMAL" : 18
                    },
                    "indices" : 15,
                    "material" : 2
                }
            ]
        },
        {
            "name" : "Cube.071",
            "primitives" : [
                {
                    "attributes" : {
                        "POSITION" : 19,
                        "TEXCOORD_0" : 20,
                        "NORMAL" : 21
                    },
                    "indices" : 15,
                    "material" : 2
                }
            ]
        },
        {
            "name" : "Cube.072",
            "primitives" : [
                {
                    "attributes" : {
                        "POSITION" : 22,
                        "TEXCOORD_0" : 23,
                        "NORMAL" : 24
                    },
                    "indices" : 15,
                    "material" : 2
                }
            ]
        },
        {
            "name" : "Cube.073",
            "primitives" : [
                {
                    "attributes" : {
                        "POSITION" : 25,
                        "TEXCOORD_0" : 26,
                        "NORMAL" : 27
                    },
                    "indices" : 15,
                    "material" : 2
                }
            ]
        },
        {
            "name" : "Cube.074",
            "primitives" : [
                {
                    "attributes" : {
                        "POSITION" : 28,
                        "TEXCOORD_0" : 29,
                        "NORMAL" : 30
                    },
                    "indices" : 15,
                    "material" : 2
                }
            ]
        },
        {
            "name" : "Cube.075",
            "primitives" : [
                {
                    "attributes" : {
                        "POSITION" : 31,
                        "TEXCOORD_0" : 32,
                        "NORMAL" : 33
                    },
                    "indices" : 15,
                    "material" : 2
                }
            ]
        },
        {
            "name" : "Cube.076",
            "primitives" : [
                {
                    "attributes" : {
                        "POSITION" : 34,
                        "TEXCOORD_0" : 35,
                        "NORMAL" : 36
                    },
                    "indices" : 15,
                    "material" : 2
                }
            ]
        },
        {
            "name" : "Cube.077",
            "primitives" : [
                {
                    "attributes" : {
                        "POSITION" : 37,
                        "TEXCOORD_0" : 38,
                        "NORMAL" : 39
                    },
                    "indices" : 15,
                    "material" : 2
                }
            ]
        },
        {
            "name" : "Cube.078",
            "primitives" : [
                {
                    "attributes" : {
                        "POSITION" : 40,
                        "TEXCOORD_0" : 41,
                        "NORMAL" : 42
                    },
                    "indices" : 15,
                    "material" : 2
                }
            ]
        },
        {
            "name" : "Cube.079",
            "primitives" : [
                {
                    "attributes" : {
                        "POSITION" : 43,
                        "TEXCOORD_0" : 44,
                        "NORMAL" : 45
                    },
                    "indices" : 15,
                    "material" : 2
                }
            ]
        },
        {
            "name" : "Cube.080",
            "primitives" : [
                {
                    "attributes" : {
                        "POSITION" : 46,
                        "TEXCOORD_0" : 47,
                        "NORMAL" : 48
                    },
                    "indices" : 15,
                    "material" : 2
                }
            ]
        },
        {
            "name" : "Cube.081",
            "primitives" : [
                {
                    "attributes" : {
                        "POSITION" : 49,
                        "TEXCOORD_0" : 50,
                        "NORMAL" : 51
                    },
                    "indices" : 15,
                    "material" : 2
                }
            ]
        },
        {
            "name" : "Cube.082",
            "primitives" : [
                {
                    "attributes" : {
                        "POSITION" : 52,
                        "TEXCOORD_0" : 53,
                        "NORMAL" : 54
                    },
                    "indices" : 15,
                    "material" : 2
                }
            ]
        },
        {
            "name" : "Cube.083",
            "primitives" : [
                {
                    "attributes" : {
                        "POSITION" : 55,
                        "TEXCOORD_0" : 56,
                        "NORMAL" : 57
                    },
                    "indices" : 15,
                    "material" : 2
                }
            ]
        },
        {
            "name" : "Cube.084",
            "primitives" : [
                {
                    "attributes" : {
                        "POSITION" : 58,
                        "TEXCOORD_0" : 59,
                        "NORMAL" : 60
                    },
                    "indices" : 15,
                    "material" : 2
                }
            ]
        },
        {
            "name" : "Cube.085",
            "primitives" : [
                {
                    "attributes" : {
                        "POSITION" : 61,
                        "TEXCOORD_0" : 62,
                        "NORMAL" : 63
                    },
                    "indices" : 15,
                    "material" : 2
                }
            ]
        },
        {
            "name" : "Cube.086",
            "primitives" : [
                {
                    "attributes" : {
                        "POSITION" : 64,
                        "TEXCOORD_0" : 65,
                        "NORMAL" : 66
                    },
                    "indices" : 15,
                    "material" : 2
                }
            ]
        },
        {
            "name" : "Cube.087",
            "primitives" : [
                {
                    "attributes" : {
                        "POSITION" : 67,
                        "TEXCOORD_0" : 68,
                        "NORMAL" : 69
                    },
                    "indices" : 70,
                    "material" : 2
                }
            ]
        },
        {
            "name" : "Cube.088",
            "primitives" : [
                {
                    "attributes" : {
                        "POSITION" : 71,
                        "TEXCOORD_0" : 72,
                        "NORMAL" : 73
                    },
                    "indices" : 70,
                    "material" : 2
                }
            ]
        },
        {
            "name" : "Cube.089",
            "primitives" : [
                {
                    "attributes" : {
                        "POSITION" : 74,
                        "TEXCOORD_0" : 75,
                        "NORMAL" : 76
                    },
                    "indices" : 70,
                    "material" : 2
                }
            ]
        },
        {
            "name" : "Cube.090",
            "primitives" : [
                {
                    "attributes" : {
                        "POSITION" : 77,
                        "TEXCOORD_0" : 78,
                        "NORMAL" : 79
                    },
                    "indices" : 70,
                    "material" : 2
                }
            ]
        },
        {
            "name" : "Cube.091",
            "primitives" : [
                {
                    "attributes" : {
                        "POSITION" : 80,
                        "TEXCOORD_0" : 81,
                        "NORMAL" : 82
                    },
                    "indices" : 70,
                    "material" : 2
                }
            ]
        },
        {
            "name" : "Cube.092",
            "primitives" : [
                {
                    "attributes" : {
                        "POSITION" : 83,
                        "TEXCOORD_0" : 84,
                        "NORMAL" : 85
                    },
                    "indices" : 70,
                    "material" : 2
                }
            ]
        },
        {
            "name" : "Cube.093",
            "primitives" : [
                {
                    "attributes" : {
                        "POSITION" : 86,
                        "TEXCOORD_0" : 87,
                        "NORMAL" : 88
                    },
                    "indices" : 70,
                    "material" : 2
                }
            ]
        },
        {
            "name" : "Cube.094",
            "primitives" : [
                {
                    "attributes" : {
                        "POSITION" : 89,
                        "TEXCOORD_0" : 90,
                        "NORMAL" : 91
                    },
                    "indices" : 70,
                    "material" : 2
                }
            ]
        },
        {
            "name" : "Cube.095",
            "primitives" : [
                {
                    "attributes" : {
                        "POSITION" : 92,
                        "TEXCOORD_0" : 93,
                        "NORMAL" : 94
                    },
                    "indices" : 70,
                    "material" : 2
                }
            ]
        },
        {
            "name" : "Cube.096",
            "primitives" : [
                {
                    "attributes" : {
                        "POSITION" : 95,
                        "TEXCOORD_0" : 96,
                        "NORMAL" : 97
                    },
                    "indices" : 70,
                    "material" : 2
                }
            ]
        },
        {
            "name" : "Cylinder.007",
            "primitives" : [
                {
                    "attributes" : {
                        "POSITION" : 98,
                        "TEXCOORD_0" : 99,
                        "NORMAL" : 100
                    },
                    "indices" : 101,
                    "material" : 3
                }
            ]
        },
        {
            "name" : "Sphere",
            "primitives" : [
                {
                    "attributes" : {
                        "POSITION" : 102,
                        "TEXCOORD_0" : 103,
                        "NORMAL" : 104
                    },
                    "indices" : 105,
                    "material" : 3
                }
            ]
        },
        {
            "name" : "Cube.097",
            "primitives" : [
                {
                    "attributes" : {
                        "POSITION" : 106,
                        "TEXCOORD_0" : 107,
                        "NORMAL" : 108
                    },
                    "indices" : 109,
                    "material" : 4
                }
            ]
        },
        {
            "name" : "Cylinder.008",
            "primitives" : [
                {
                    "attributes" : {
                        "POSITION" : 110,
                        "TEXCOORD_0" : 111,
                        "NORMAL" : 112
                    },
                    "indices" : 101,
                    "material" : 5
                }
            ]
        },
        {
            "name" : "Cylinder.009",
            "primitives" : [
                {
                    "attributes" : {
                        "POSITION" : 113,
                        "TEXCOORD_0" : 114,
                        "NORMAL" : 115
                    },
                    "indices" : 101,
                    "material" : 5
                }
            ]
        },
        {
            "name" : "Cube.098",
            "primitives" : [
                {
                    "attributes" : {
                        "POSITION" : 116,
                        "TEXCOORD_0" : 117,
                        "NORMAL" : 118
                    },
                    "indices" : 119,
                    "material" : 4
                }
            ]
        },
        {
            "name" : "Cylinder.010",
            "primitives" : [
                {
                    "attributes" : {
                        "POSITION" : 120,
                        "TEXCOORD_0" : 121,
                        "NORMAL" : 122
                    },
                    "indices" : 101,
                    "material" : 5
                }
            ]
        },
        {
            "name" : "Cylinder.011",
            "primitives" : [
                {
                    "attributes" : {
                        "POSITION" : 123,
                        "TEXCOORD_0" : 124,
                        "NORMAL" : 125
                    },
                    "indices" : 101,
                    "material" : 5
                }
            ]
        },
        {
            "name" : "Cube.099",
            "primitives" : [
                {
                    "attributes" : {
                        "POSITION" : 126,
                        "TEXCOORD_0" : 127,
                        "NORMAL" : 128
                    },
                    "indices" : 129,
                    "material" : 4
                }
            ]
        },
        {
            "name" : "Cylinder.012",
            "primitives" : [
                {
                    "attributes" : {
                        "POSITION" : 130,
                        "TEXCOORD_0" : 131,
                        "NORMAL" : 132
                    },
                    "indices" : 101,
                    "material" : 5
                }
            ]
        },
        {
            "name" : "Cylinder.013",
            "primitives" : [
                {
                    "attributes" : {
                        "POSITION" : 133,
                        "TEXCOORD_0" : 134,
                        "NORMAL" : 135
                    },
                    "indices" : 101,
                    "material" : 5
                }
            ]
        },
        {
            "name" : "Cube.100",
            "primitives" : [
                {
                    "attributes" : {
                        "POSITION" : 136,
                        "TEXCOORD_0" : 137,
                        "NORMAL" : 138
                    },
                    "indices" : 139,
                    "material" : 4
                }
            ]
        },
        {
            "name" : "Cylinder.014",
            "primitives" : [
                {
                    "attributes" : {
                        "POSITION" : 140,
                        "TEXCOORD_0" : 141,
                        "NORMAL" : 142
                    },
                    "indices" : 101,
                    "material" : 5
                }
            ]
        },
        {
            "name" : "Cylinder.015",
            "primitives" : [
                {
                    "attributes" : {
                        "POSITION" : 143,
                        "TEXCOORD_0" : 144,
                        "NORMAL" : 145
                    },
                    "indices" : 101,
                    "material" : 5
                }
            ]
        }
    ],
    "accessors" : [
        {
            "bufferView" : 0,
            "componentType" : 5126,
            "count" : 216,
            "max" : [
                12,
                0.15000000596046448,
                12
            ],
            "min" : [
                -12,
                -0.15000000596046448,
                -12
            ],
            "type" : "VEC3"
        },
        {
            "bufferView" : 1,
            "componentType" : 5126,
            "count" : 216,
            "type" : "VEC2"
        },
        {
            "bufferView" : 2,
            "componentType" : 5126,
            "count" : 216,
            "type" : "VEC3"
        },
        {
            "bufferView" : 3,
            "componentType" : 5123,
            "count" : 324,
            "type" : "SCALAR"
        },
        {
            "bufferView" : 4,
            "componentType" : 5126,
            "count" : 216,
            "max" : [
                9,
                0.05000000074505806,
                9
            ],
            "min" : [
                -9,
                -0.05000000074505806,
                -9
            ],
            "type" : "VEC3"
        },
        {
            "bufferView" : 5,
            "componentType" : 5126,
            "count" : 216,
            "type" : "VEC2"
        },
        {
            "bufferView" : 6,
            "componentType" : 5126,
            "count" : 216,
            "type" : "VEC3"
        },
        {
            "bufferView" : 7,
            "componentType" : 5123,
            "count" : 324,
            "type" : "SCALAR"
        },
        {
            "bufferView" : 8,
            "componentType" : 5126,
            "count" : 216,
            "max" : [
                8,
                0.07999999821186066,
                6
            ],
            "min" : [
                -8,
                -0.07999999821186066,
                -6
            ],
            "type" : "VEC3"
        },
        {
            "bufferView" : 9,
            "componentType" : 5126,
            "count" : 216,
            "type" : "VEC2"
        },
        {
            "bufferView" : 10,
            "componentType" : 5126,
            "count" : 216,
            "type" : "VEC3"
        },
        {
            "bufferView" : 11,
            "componentType" : 5123,
            "count" : 324,
            "type" : "SCALAR"
        },
        {
            "bufferView" : 12,
            "componentType" : 5126,
            "count" : 216,
            "max" : [
                0.8999999761581421,
                0.699999988079071,
                0.05000000074505806
            ],
            "min" : [
                -0.8999999761581421,
                -0.699999988079071,
                -0.05000000074505806
            ],
            "type" : "VEC3"
        },
        {
            "bufferView" : 13,
            "componentType" : 5126,
            "count" : 216,
            "type" : "VEC2"
        },
        {
            "bufferView" : 14,
            "componentType" : 5126,
            "count" : 216,
            "type" : "VEC3"
        },
        {
            "bufferView" : 15,
            "componentType" : 5123,
            "count" : 324,
            "type" : "SCALAR"
        },
        {
            "bufferView" : 16,
            "componentType" : 5126,
            "count" : 216,
            "max" : [
                0.8999999761581421,
                0.699999988079071,
                0.05000000074505806
            ],
            "min" : [
                -0.8999999761581421,
                -0.699999988079071,
                -0.05000000074505806
            ],
            "type" : "VEC3"
        },
        {
            "bufferView" : 17,
            "componentType" : 5126,
            "count" : 216,
            "type" : "VEC2"
        },
        {
            "bufferView" : 18,
            "componentType" : 5126,
            "count" : 216,
            "type" : "VEC3"
        },
        {
            "bufferView" : 19,
            "componentType" : 5126,
            "count" : 216,
            "max" : [
                0.8999999761581421,
                0.699999988079071,
                0.05000000074505806
            ],
            "min" : [
                -0.8999999761581421,
                -0.699999988079071,
                -0.05000000074505806
            ],
            "type" : "VEC3"
        },
        {
            "bufferView" : 20,
            "componentType" : 5126,
            "count" : 216,
            "type" : "VEC2"
        },
        {
            "bufferView" : 21,
            "componentType" : 5126,
            "count" : 216,
            "type" : "VEC3"
        },
        {
            "bufferView" : 22,
            "componentType" : 5126,
            "count" : 216,
            "max" : [
                0.8999999761581421,
                0.699999988079071,
                0.05000000074505806
            ],
            "min" : [
                -0.8999999761581421,
                -0.699999988079071,
                -0.05000000074505806
            ],
            "type" : "VEC3"
        },
        {
            "bufferView" : 23,
            "componentType" : 5126,
            "count" : 216,
            "type" : "VEC2"
        },
        {
            "bufferView" : 24,
            "componentType" : 5126,
            "count" : 216,
            "type" : "VEC3"
        },
        {
            "bufferView" : 25,
            "componentType" : 5126,
            "count" : 216,
            "max" : [
                0.8999999761581421,
                0.699999988079071,
                0.05000000074505806
            ],
            "min" : [
                -0.8999999761581421,
                -0.699999988079071,
                -0.05000000074505806
            ],
            "type" : "VEC3"
        },
        {
            "bufferView" : 26,
            "componentType" : 5126,
            "count" : 216,
            "type" : "VEC2"
        },
        {
            "bufferView" : 27,
            "componentType" : 5126,
            "count" : 216,
            "type" : "VEC3"
        },
        {
            "bufferView" : 28,
            "componentType" : 5126,
            "count" : 216,
            "max" : [
                0.8999999761581421,
                0.699999988079071,
                0.05000000074505806
            ],
            "min" : [
                -0.8999999761581421,
                -0.699999988079071,
                -0.05000000074505806
            ],
            "type" : "VEC3"
        },
        {
            "bufferView" : 29,
            "componentType" : 5126,
            "count" : 216,
            "type" : "VEC2"
        },
        {
            "bufferView" : 30,
            "componentType" : 5126,
            "count" : 216,
            "type" : "VEC3"
        },
        {
            "bufferView" : 31,
            "componentType" : 5126,
            "count" : 216,
            "max" : [
                0.8999999761581421,
                0.699999988079071,
                0.05000000074505806
            ],
            "min" : [
                -0.8999999761581421,
                -0.699999988079071,
                -0.05000000074505806
            ],
            "type" : "VEC3"
        },
        {
            "bufferView" : 32,
            "componentType" : 5126,
            "count" : 216,
            "type" : "VEC2"
        },
        {
            "bufferView" : 33,
            "componentType" : 5126,
            "count" : 216,
            "type" : "VEC3"
        },
        {
            "bufferView" : 34,
            "componentType" : 5126,
            "count" : 216,
            "max" : [
                0.8999999761581421,
                0.699999988079071,
                0.05000000074505806
            ],
            "min" : [
                -0.8999999761581421,
                -0.699999988079071,
                -0.05000000074505806
            ],
            "type" : "VEC3"
        },
        {
            "bufferView" : 35,
            "componentType" : 5126,
            "count" : 216,
            "type" : "VEC2"
        },
        {
            "bufferView" : 36,
            "componentType" : 5126,
            "count" : 216,
            "type" : "VEC3"
        },
        {
            "bufferView" : 37,
            "componentType" : 5126,
            "count" : 216,
            "max" : [
                0.8999999761581421,
                0.699999988079071,
                0.05000000074505806
            ],
            "min" : [
                -0.8999999761581421,
                -0.699999988079071,
                -0.05000000074505806
            ],
            "type" : "VEC3"
        },
        {
            "bufferView" : 38,
            "componentType" : 5126,
            "count" : 216,
            "type" : "VEC2"
        },
        {
            "bufferView" : 39,
            "componentType" : 5126,
            "count" : 216,
            "type" : "VEC3"
        },
        {
            "bufferView" : 40,
            "componentType" : 5126,
            "count" : 216,
            "max" : [
                0.8999999761581421,
                0.699999988079071,
                0.05000000074505806
            ],
            "min" : [
                -0.8999999761581421,
                -0.699999988079071,
                -0.05000000074505806
            ],
            "type" : "VEC3"
        },
        {
            "bufferView" : 41,
            "componentType" : 5126,
            "count" : 216,
            "type" : "VEC2"
        },
        {
            "bufferView" : 42,
            "componentType" : 5126,
            "count" : 216,
            "type" : "VEC3"
        },
        {
            "bufferView" : 43,
            "componentType" : 5126,
            "count" : 216,
            "max" : [
                0.8999999761581421,
                0.699999988079071,
                0.05000000074505806
            ],
            "min" : [
                -0.8999999761581421,
                -0.699999988079071,
                -0.05000000074505806
            ],
            "type" : "VEC3"
        },
        {
            "bufferView" : 44,
            "componentType" : 5126,
            "count" : 216,
            "type" : "VEC2"
        },
        {
            "bufferView" : 45,
            "componentType" : 5126,
            "count" : 216,
            "type" : "VEC3"
        },
        {
            "bufferView" : 46,
            "componentType" : 5126,
            "count" : 216,
            "max" : [
                0.8999999761581421,
                0.699999988079071,
                0.05000000074505806
            ],
            "min" : [
                -0.8999999761581421,
                -0.699999988079071,
                -0.05000000074505806
            ],
            "type" : "VEC3"
        },
        {
            "bufferView" : 47,
            "componentType" : 5126,
            "count" : 216,
            "type" : "VEC2"
        },
        {
            "bufferView" : 48,
            "componentType" : 5126,
            "count" : 216,
            "type" : "VEC3"
        },
        {
            "bufferView" : 49,
            "componentType" : 5126,
            "count" : 216,
            "max" : [
                0.8999999761581421,
                0.699999988079071,
                0.05000000074505806
            ],
            "min" : [
                -0.8999999761581421,
                -0.699999988079071,
                -0.05000000074505806
            ],
            "type" : "VEC3"
        },
        {
            "bufferView" : 50,
            "componentType" : 5126,
            "count" : 216,
            "type" : "VEC2"
        },
        {
            "bufferView" : 51,
            "componentType" : 5126,
            "count" : 216,
            "type" : "VEC3"
        },
        {
            "bufferView" : 52,
            "componentType" : 5126,
            "count" : 216,
            "max" : [
                0.8999999761581421,
                0.699999988079071,
                0.05000000074505806
            ],
            "min" : [
                -0.8999999761581421,
                -0.699999988079071,
                -0.05000000074505806
            ],
            "type" : "VEC3"
        },
        {
            "bufferView" : 53,
            "componentType" : 5126,
            "count" : 216,
            "type" : "VEC2"
        },
        {
            "bufferView" : 54,
            "componentType" : 5126,
            "count" : 216,
            "type" : "VEC3"
        },
        {
            "bufferView" : 55,
            "componentType" : 5126,
            "count" : 216,
            "max" : [
                0.8999999761581421,
                0.699999988079071,
                0.05000000074505806
            ],
            "min" : [
                -0.8999999761581421,
                -0.699999988079071,
                -0.05000000074505806
            ],
            "type" : "VEC3"
        },
        {
            "bufferView" : 56,
            "componentType" : 5126,
            "count" : 216,
            "type" : "VEC2"
        },
        {
            "bufferView" : 57,
            "componentType" : 5126,
            "count" : 216,
            "type" : "VEC3"
        },
        {
            "bufferView" : 58,
            "componentType" : 5126,
            "count" : 216,
            "max" : [
                0.8999999761581421,
                0.699999988079071,
                0.05000000074505806
            ],
            "min" : [
                -0.8999999761581421,
                -0.699999988079071,
                -0.05000000074505806
            ],
            "type" : "VEC3"
        },
        {
            "bufferView" : 59,
            "componentType" : 5126,
            "count" : 216,
            "type" : "VEC2"
        },
        {
            "bufferView" : 60,
            "componentType" : 5126,
            "count" : 216,
            "type" : "VEC3"
        },
        {
            "bufferView" : 61,
            "componentType" : 5126,
            "count" : 216,
            "max" : [
                0.8999999761581421,
                0.699999988079071,
                0.05000000074505806
            ],
            "min" : [
                -0.8999999761581421,
                -0.699999988079071,
                -0.05000000074505806
            ],
            "type" : "VEC3"
        },
        {
            "bufferView" : 62,
            "componentType" : 5126,
            "count" : 216,
            "type" : "VEC2"
        },
        {
            "bufferView" : 63,
            "componentType" : 5126,
            "count" : 216,
            "type" : "VEC3"
        },
        {
            "bufferView" : 64,
            "componentType" : 5126,
            "count" : 216,
            "max" : [
                0.8999999761581421,
                0.699999988079071,
                0.05000000074505806
            ],
            "min" : [
                -0.8999999761581421,
                -0.699999988079071,
                -0.05000000074505806
            ],
            "type" : "VEC3"
        },
        {
            "bufferView" : 65,
            "componentType" : 5126,
            "count" : 216,
            "type" : "VEC2"
        },
        {
            "bufferView" : 66,
            "componentType" : 5126,
            "count" : 216,
            "type" : "VEC3"
        },
        {
            "bufferView" : 67,
            "componentType" : 5126,
            "count" : 216,
            "max" : [
                0.05000000074505806,
                0.699999988079071,
                0.8999999761581421
            ],
            "min" : [
                -0.05000000074505806,
                -0.699999988079071,
                -0.8999999761581421
            ],
            "type" : "VEC3"
        },
        {
            "bufferView" : 68,
            "componentType" : 5126,
            "count" : 216,
            "type" : "VEC2"
        },
        {
            "bufferView" : 69,
            "componentType" : 5126,
            "count" : 216,
            "type" : "VEC3"
        },
        {
            "bufferView" : 70,
            "componentType" : 5123,
            "count" : 324,
            "type" : "SCALAR"
        },
        {
            "bufferView" : 71,
            "componentType" : 5126,
            "count" : 216,
            "max" : [
                0.05000000074505806,
                0.699999988079071,
                0.8999999761581421
            ],
            "min" : [
                -0.05000000074505806,
                -0.699999988079071,
                -0.8999999761581421
            ],
            "type" : "VEC3"
        },
        {
            "bufferView" : 72,
            "componentType" : 5126,
            "count" : 216,
            "type" : "VEC2"
        },
        {
            "bufferView" : 73,
            "componentType" : 5126,
            "count" : 216,
            "type" : "VEC3"
        },
        {
            "bufferView" : 74,
            "componentType" : 5126,
            "count" : 216,
            "max" : [
                0.05000000074505806,
                0.699999988079071,
                0.8999999761581421
            ],
            "min" : [
                -0.05000000074505806,
                -0.699999988079071,
                -0.8999999761581421
            ],
            "type" : "VEC3"
        },
        {
            "bufferView" : 75,
            "componentType" : 5126,
            "count" : 216,
            "type" : "VEC2"
        },
        {
            "bufferView" : 76,
            "componentType" : 5126,
            "count" : 216,
            "type" : "VEC3"
        },
        {
            "bufferView" : 77,
            "componentType" : 5126,
            "count" : 216,
            "max" : [
                0.05000000074505806,
                0.699999988079071,
                0.8999999761581421
            ],
            "min" : [
                -0.05000000074505806,
                -0.699999988079071,
                -0.8999999761581421
            ],
            "type" : "VEC3"
        },
        {
            "bufferView" : 78,
            "componentType" : 5126,
            "count" : 216,
            "type" : "VEC2"
        },
        {
            "bufferView" : 79,
            "componentType" : 5126,
            "count" : 216,
            "type" : "VEC3"
        },
        {
            "bufferView" : 80,
            "componentType" : 5126,
            "count" : 216,
            "max" : [
                0.05000000074505806,
                0.699999988079071,
                0.8999999761581421
            ],
            "min" : [
                -0.05000000074505806,
                -0.699999988079071,
                -0.8999999761581421
            ],
            "type" : "VEC3"
        },
        {
            "bufferView" : 81,
            "componentType" : 5126,
            "count" : 216,
            "type" : "VEC2"
        },
        {
            "bufferView" : 82,
            "componentType" : 5126,
            "count" : 216,
            "type" : "VEC3"
        },
        {
            "bufferView" : 83,
            "componentType" : 5126,
            "count" : 216,
            "max" : [
                0.05000000074505806,
                0.699999988079071,
                0.8999999761581421
            ],
            "min" : [
                -0.05000000074505806,
                -0.699999988079071,
                -0.8999999761581421
            ],
            "type" : "VEC3"
        },
        {
            "bufferView" : 84,
            "componentType" : 5126,
            "count" : 216,
            "type" : "VEC2"
        },
        {
            "bufferView" : 85,
            "componentType" : 5126,
            "count" : 216,
            "type" : "VEC3"
        },
        {
            "bufferView" : 86,
            "componentType" : 5126,
            "count" : 216,
            "max" : [
                0.05000000074505806,
                0.699999988079071,
                0.8999999761581421
            ],
            "min" : [
                -0.05000000074505806,
                -0.699999988079071,
                -0.8999999761581421
            ],
            "type" : "VEC3"
        },
        {
            "bufferView" : 87,
            "componentType" : 5126,
            "count" : 216,
            "type" : "VEC2"
        },
        {
            "bufferView" : 88,
            "componentType" : 5126,
            "count" : 216,
            "type" : "VEC3"
        },
        {
            "bufferView" : 89,
            "componentType" : 5126,
            "count" : 216,
            "max" : [
                0.05000000074505806,
                0.699999988079071,
                0.8999999761581421
            ],
            "min" : [
                -0.05000000074505806,
                -0.699999988079071,
                -0.8999999761581421
            ],
            "type" : "VEC3"
        },
        {
            "bufferView" : 90,
            "componentType" : 5126,
            "count" : 216,
            "type" : "VEC2"
        },
        {
            "bufferView" : 91,
            "componentType" : 5126,
            "count" : 216,
            "type" : "VEC3"
        },
        {
            "bufferView" : 92,
            "componentType" : 5126,
            "count" : 216,
            "max" : [
                0.05000000074505806,
                0.699999988079071,
                0.8999999761581421
            ],
            "min" : [
                -0.05000000074505806,
                -0.699999988079071,
                -0.8999999761581421
            ],
            "type" : "VEC3"
        },
        {
            "bufferView" : 93,
            "componentType" : 5126,
            "count" : 216,
            "type" : "VEC2"
        },
        {
            "bufferView" : 94,
            "componentType" : 5126,
            "count" : 216,
            "type" : "VEC3"
        },
        {
            "bufferView" : 95,
            "componentType" : 5126,
            "count" : 216,
            "max" : [
                0.05000000074505806,
                0.699999988079071,
                0.8999999761581421
            ],
            "min" : [
                -0.05000000074505806,
                -0.699999988079071,
                -0.8999999761581421
            ],
            "type" : "VEC3"
        },
        {
            "bufferView" : 96,
            "componentType" : 5126,
            "count" : 216,
            "type" : "VEC2"
        },
        {
            "bufferView" : 97,
            "componentType" : 5126,
            "count" : 216,
            "type" : "VEC3"
        },
        {
            "bufferView" : 98,
            "componentType" : 5126,
            "count" : 96,
            "max" : [
                0.2800000011920929,
                0.574999988079071,
                0.2800000011920929
            ],
            "min" : [
                -0.2800000011920929,
                -0.574999988079071,
                -0.2800000011920929
            ],
            "type" : "VEC3"
        },
        {
            "bufferView" : 99,
            "componentType" : 5126,
            "count" : 96,
            "type" : "VEC2"
        },
        {
            "bufferView" : 100,
            "componentType" : 5126,
            "count" : 96,
            "type" : "VEC3"
        },
        {
            "bufferView" : 101,
            "componentType" : 5123,
            "count" : 180,
            "type" : "SCALAR"
        },
        {
            "bufferView" : 102,
            "componentType" : 5126,
            "count" : 480,
            "max" : [
                0.25,
                0.25,
                0.25
            ],
            "min" : [
                -0.2499999850988388,
                -0.25,
                -0.25
            ],
            "type" : "VEC3"
        },
        {
            "bufferView" : 103,
            "componentType" : 5126,
            "count" : 480,
            "type" : "VEC2"
        },
        {
            "bufferView" : 104,
            "componentType" : 5126,
            "count" : 480,
            "type" : "VEC3"
        },
        {
            "bufferView" : 105,
            "componentType" : 5123,
            "count" : 672,
            "type" : "SCALAR"
        },
        {
            "bufferView" : 106,
            "componentType" : 5126,
            "count" : 216,
            "max" : [
                0.800000011920929,
                0.4000000059604645,
                0.30000001192092896
            ],
            "min" : [
                -0.800000011920929,
                -0.4000000059604645,
                -0.30000001192092896
            ],
            "type" : "VEC3"
        },
        {
            "bufferView" : 107,
            "componentType" : 5126,
            "count" : 216,
            "type" : "VEC2"
        },
        {
            "bufferView" : 108,
            "componentType" : 5126,
            "count" : 216,
            "type" : "VEC3"
        },
        {
            "bufferView" : 109,
            "componentType" : 5123,
            "count" : 324,
            "type" : "SCALAR"
        },
        {
            "bufferView" : 110,
            "componentType" : 5126,
            "count" : 96,
            "max" : [
                0.07999999821186066,
                0.25,
                0.07999999821186066
            ],
            "min" : [
                -0.07999999821186066,
                -0.25,
                -0.07999999821186066
            ],
            "type" : "VEC3"
        },
        {
            "bufferView" : 111,
            "componentType" : 5126,
            "count" : 96,
            "type" : "VEC2"
        },
        {
            "bufferView" : 112,
            "componentType" : 5126,
            "count" : 96,
            "type" : "VEC3"
        },
        {
            "bufferView" : 113,
            "componentType" : 5126,
            "count" : 96,
            "max" : [
                0.07999999821186066,
                0.25,
                0.07999999821186066
            ],
            "min" : [
                -0.07999999821186066,
                -0.25,
                -0.07999999821186066
            ],
            "type" : "VEC3"
        },
        {
            "bufferView" : 114,
            "componentType" : 5126,
            "count" : 96,
            "type" : "VEC2"
        },
        {
            "bufferView" : 115,
            "componentType" : 5126,
            "count" : 96,
            "type" : "VEC3"
        },
        {
            "bufferView" : 116,
            "componentType" : 5126,
            "count" : 216,
            "max" : [
                1.0399999618530273,
                0.5199999809265137,
                0.38999998569488525
            ],
            "min" : [
                -1.0399999618530273,
                -0.5199999809265137,
                -0.38999998569488525
            ],
            "type" : "VEC3"
        },
        {
            "bufferView" : 117,
            "componentType" : 5126,
            "count" : 216,
            "type" : "VEC2"
        },
        {
            "bufferView" : 118,
            "componentType" : 5126,
            "count" : 216,
            "type" : "VEC3"
        },
        {
            "bufferView" : 119,
            "componentType" : 5123,
            "count" : 324,
            "type" : "SCALAR"
        },
        {
            "bufferView" : 120,
            "componentType" : 5126,
            "count" : 96,
            "max" : [
                0.10400000214576721,
                0.32499998807907104,
                0.10400000214576721
            ],
            "min" : [
                -0.10400000214576721,
                -0.32499998807907104,
                -0.10400000214576721
            ],
            "type" : "VEC3"
        },
        {
            "bufferView" : 121,
            "componentType" : 5126,
            "count" : 96,
            "type" : "VEC2"
        },
        {
            "bufferView" : 122,
            "componentType" : 5126,
            "count" : 96,
            "type" : "VEC3"
        },
        {
            "bufferView" : 123,
            "componentType" : 5126,
            "count" : 96,
            "max" : [
                0.10400000214576721,
                0.32499998807907104,
                0.10400000214576721
            ],
            "min" : [
                -0.10400000214576721,
                -0.32499998807907104,
                -0.10400000214576721
            ],
            "type" : "VEC3"
        },
        {
            "bufferView" : 124,
            "componentType" : 5126,
            "count" : 96,
            "type" : "VEC2"
        },
        {
            "bufferView" : 125,
            "componentType" : 5126,
            "count" : 96,
            "type" : "VEC3"
        },
        {
            "bufferView" : 126,
            "componentType" : 5126,
            "count" : 216,
            "max" : [
                0.4399999976158142,
                0.2199999988079071,
                0.16500000655651093
            ],
            "min" : [
                -0.4399999976158142,
                -0.2199999988079071,
                -0.16500000655651093
            ],
            "type" : "VEC3"
        },
        {
            "bufferView" : 127,
            "componentType" : 5126,
            "count" : 216,
            "type" : "VEC2"
        },
        {
            "bufferView" : 128,
            "componentType" : 5126,
            "count" : 216,
            "type" : "VEC3"
        },
        {
            "bufferView" : 129,
            "componentType" : 5123,
            "count" : 324,
            "type" : "SCALAR"
        },
        {
            "bufferView" : 130,
            "componentType" : 5126,
            "count" : 96,
            "max" : [
                0.04399999976158142,
                0.13750000298023224,
                0.04399999976158142
            ],
            "min" : [
                -0.04399999976158142,
                -0.13750000298023224,
                -0.04399999976158142
            ],
            "type" : "VEC3"
        },
        {
            "bufferView" : 131,
            "componentType" : 5126,
            "count" : 96,
            "type" : "VEC2"
        },
        {
            "bufferView" : 132,
            "componentType" : 5126,
            "count" : 96,
            "type" : "VEC3"
        },
        {
            "bufferView" : 133,
            "componentType" : 5126,
            "count" : 96,
            "max" : [
                0.04399999976158142,
                0.13750000298023224,
                0.04399999976158142
            ],
            "min" : [
                -0.04399999976158142,
                -0.13750000298023224,
                -0.04399999976158142
            ],
            "type" : "VEC3"
        },
        {
            "bufferView" : 134,
            "componentType" : 5126,
            "count" : 96,
            "type" : "VEC2"
        },
        {
            "bufferView" : 135,
            "componentType" : 5126,
            "count" : 96,
            "type" : "VEC3"
        },
        {
            "bufferView" : 136,
            "componentType" : 5126,
            "count" : 216,
            "max" : [
                0.6399999856948853,
                0.3199999928474426,
                0.23999999463558197
            ],
            "min" : [
                -0.6399999856948853,
                -0.3199999928474426,
                -0.23999999463558197
            ],
            "type" : "VEC3"
        },
        {
            "bufferView" : 137,
            "componentType" : 5126,
            "count" : 216,
            "type" : "VEC2"
        },
        {
            "bufferView" : 138,
            "componentType" : 5126,
            "count" : 216,
            "type" : "VEC3"
        },
        {
            "bufferView" : 139,
            "componentType" : 5123,
            "count" : 324,
            "type" : "SCALAR"
        },
        {
            "bufferView" : 140,
            "componentType" : 5126,
            "count" : 96,
            "max" : [
                0.06400000303983688,
                0.20000000298023224,
                0.06400000303983688
            ],
            "min" : [
                -0.06400000303983688,
                -0.20000000298023224,
                -0.06400000303983688
            ],
            "type" : "VEC3"
        },
        {
            "bufferView" : 141,
            "componentType" : 5126,
            "count" : 96,
            "type" : "VEC2"
        },
        {
            "bufferView" : 142,
            "componentType" : 5126,
            "count" : 96,
            "type" : "VEC3"
        },
        {
            "bufferView" : 143,
            "componentType" : 5126,
            "count" : 96,
            "max" : [
                0.06400000303983688,
                0.20000000298023224,
                0.06400000303983688
            ],
            "min" : [
                -0.06400000303983688,
                -0.20000000298023224,
                -0.06400000303983688
            ],
            "type" : "VEC3"
        },
        {
            "bufferView" : 144,
            "componentType" : 5126,
            "count" : 96,
            "type" : "VEC2"
        },
        {
            "bufferView" : 145,
            "componentType" : 5126,
            "count" : 96,
            "type" : "VEC3"
        }
    ],
    "bufferViews" : [
        {
            "buffer" : 0,
            "byteLength" : 2592,
            "byteOffset" : 0,
            "target" : 34962
        },
        {
            "buffer" : 0,
            "byteLength" : 1728,
            "byteOffset" : 2592,
            "target" : 34962
        },
        {
            "buffer" : 0,
            "byteLength" : 2592,
            "byteOffset" : 4320,
            "target" : 34962
        },
        {
            "buffer" : 0,
            "byteLength" : 648,
            "byteOffset" : 6912,
            "target" : 34963
        },
        {
            "buffer" : 0,
            "byteLength" : 2592,
            "byteOffset" : 7560,
            "target" : 34962
        },
        {
            "buffer" : 0,
            "byteLength" : 1728,
            "byteOffset" : 10152,
            "target" : 34962
        },
        {
            "buffer" : 0,
            "byteLength" : 2592,
            "byteOffset" : 11880,
            "target" : 34962
        },
        {
            "buffer" : 0,
            "byteLength" : 648,
            "byteOffset" : 14472,
            "target" : 34963
        },
        {
            "buffer" : 0,
            "byteLength" : 2592,
            "byteOffset" : 15120,
            "target" : 34962
        },
        {
            "buffer" : 0,
            "byteLength" : 1728,
            "byteOffset" : 17712,
            "target" : 34962
        },
        {
            "buffer" : 0,
            "byteLength" : 2592,
            "byteOffset" : 19440,
            "target" : 34962
        },
        {
            "buffer" : 0,
            "byteLength" : 648,
            "byteOffset" : 22032,
            "target" : 34963
        },
        {
            "buffer" : 0,
            "byteLength" : 2592,
            "byteOffset" : 22680,
            "target" : 34962
        },
        {
            "buffer" : 0,
            "byteLength" : 1728,
            "byteOffset" : 25272,
            "target" : 34962
        },
        {
            "buffer" : 0,
            "byteLength" : 2592,
            "byteOffset" : 27000,
            "target" : 34962
        },
        {
            "buffer" : 0,
            "byteLength" : 648,
            "byteOffset" : 29592,
            "target" : 34963
        },
        {
            "buffer" : 0,
            "byteLength" : 2592,
            "byteOffset" : 30240,
            "target" : 34962
        },
        {
            "buffer" : 0,
            "byteLength" : 1728,
            "byteOffset" : 32832,
            "target" : 34962
        },
        {
            "buffer" : 0,
            "byteLength" : 2592,
            "byteOffset" : 34560,
            "target" : 34962
        },
        {
            "buffer" : 0,
            "byteLength" : 2592,
            "byteOffset" : 37152,
            "target" : 34962
        },
        {
            "buffer" : 0,
            "byteLength" : 1728,
            "byteOffset" : 39744,
            "target" : 34962
        },
        {
            "buffer" : 0,
            "byteLength" : 2592,
            "byteOffset" : 41472,
            "target" : 34962
        },
        {
            "buffer" : 0,
            "byteLength" : 2592,
            "byteOffset" : 44064,
            "target" : 34962
        },
        {
            "buffer" : 0,
            "byteLength" : 1728,
            "byteOffset" : 46656,
            "target" : 34962
        },
        {
            "buffer" : 0,
            "byteLength" : 2592,
            "byteOffset" : 48384,
            "target" : 34962
        },
        {
            "buffer" : 0,
            "byteLength" : 2592,
            "byteOffset" : 50976,
            "target" : 34962
        },
        {
            "buffer" : 0,
            "byteLength" : 1728,
            "byteOffset" : 53568,
            "target" : 34962
        },
        {
            "buffer" : 0,
            "byteLength" : 2592,
            "byteOffset" : 55296,
            "target" : 34962
        },
        {
            "buffer" : 0,
            "byteLength" : 2592,
            "byteOffset" : 57888,
            "target" : 34962
        },
        {
            "buffer" : 0,
            "byteLength" : 1728,
            "byteOffset" : 60480,
            "target" : 34962
        },
        {
            "buffer" : 0,
            "byteLength" : 2592,
            "byteOffset" : 62208,
            "target" : 34962
        },
        {
            "buffer" : 0,
            "byteLength" : 2592,
            "byteOffset" : 64800,
            "target" : 34962
        },
        {
            "buffer" : 0,
            "byteLength" : 1728,
            "byteOffset" : 67392,
            "target" : 34962
        },
        {
            "buffer" : 0,
            "byteLength" : 2592,
            "byteOffset" : 69120,
            "target" : 34962
        },
        {
            "buffer" : 0,
            "byteLength" : 2592,
            "byteOffset" : 71712,
            "target" : 34962
        },
        {
            "buffer" : 0,
            "byteLength" : 1728,
            "byteOffset" : 74304,
            "target" : 34962
        },
        {
            "buffer" : 0,
            "byteLength" : 2592,
            "byteOffset" : 76032,
            "target" : 34962
        },
        {
            "buffer" : 0,
            "byteLength" : 2592,
            "byteOffset" : 78624,
            "target" : 34962
        },
        {
            "buffer" : 0,
            "byteLength" : 1728,
            "byteOffset" : 81216,
            "target" : 34962
        },
        {
            "buffer" : 0,
            "byteLength" : 2592,
            "byteOffset" : 82944,
            "target" : 34962
        },
        {
            "buffer" : 0,
            "byteLength" : 2592,
            "byteOffset" : 85536,
            "target" : 34962
        },
        {
            "buffer" : 0,
            "byteLength" : 1728,
            "byteOffset" : 88128,
            "target" : 34962
        },
        {
            "buffer" : 0,
            "byteLength" : 2592,
            "byteOffset" : 89856,
            "target" : 34962
        },
        {
            "buffer" : 0,
            "byteLength" : 2592,
            "byteOffset" : 92448,
            "target" : 34962
        },
        {
            "buffer" : 0,
            "byteLength" : 1728,
            "byteOffset" : 95040,
            "target" : 34962
        },
        {
            "buffer" : 0,
            "byteLength" : 2592,
            "byteOffset" : 96768,
            "target" : 34962
        },
        {
            "buffer" : 0,
            "byteLength" : 2592,
            "byteOffset" : 99360,
            "target" : 34962
        },
        {
            "buffer" : 0,
            "byteLength" : 1728,
            "byteOffset" : 101952,
            "target" : 34962
        },
        {
            "buffer" : 0,
            "byteLength" : 2592,
            "byteOffset" : 103680,
            "target" : 34962
        },
        {
            "buffer" : 0,
            "byteLength" : 2592,
            "byteOffset" : 106272,
            "target" : 34962
        },
        {
            "buffer" : 0,
            "byteLength" : 1728,
            "byteOffset" : 108864,
            "target" : 34962
        },
        {
            "buffer" : 0,
            "byteLength" : 2592,
            "byteOffset" : 110592,
            "target" : 34962
        },
        {
            "buffer" : 0,
            "byteLength" : 2592,
            "byteOffset" : 113184,
            "target" : 34962
        },
        {
            "buffer" : 0,
            "byteLength" : 1728,
            "byteOffset" : 115776,
            "target" : 34962
        },
        {
            "buffer" : 0,
            "byteLength" : 2592,
            "byteOffset" : 117504,
            "target" : 34962
        },
        {
            "buffer" : 0,
            "byteLength" : 2592,
            "byteOffset" : 120096,
            "target" : 34962
        },
        {
            "buffer" : 0,
            "byteLength" : 1728,
            "byteOffset" : 122688,
            "target" : 34962
        },
        {
            "buffer" : 0,
            "byteLength" : 2592,
            "byteOffset" : 124416,
            "target" : 34962
        },
        {
            "buffer" : 0,
            "byteLength" : 2592,
            "byteOffset" : 127008,
            "target" : 34962
        },
        {
            "buffer" : 0,
            "byteLength" : 1728,
            "byteOffset" : 129600,
            "target" : 34962
        },
        {
            "buffer" : 0,
            "byteLength" : 2592,
            "byteOffset" : 131328,
            "target" : 34962
        },
        {
            "buffer" : 0,
            "byteLength" : 2592,
            "byteOffset" : 133920,
            "target" : 34962
        },
        {
            "buffer" : 0,
            "byteLength" : 1728,
            "byteOffset" : 136512,
            "target" : 34962
        },
        {
            "buffer" : 0,
            "byteLength" : 2592,
            "byteOffset" : 138240,
            "target" : 34962
        },
        {
            "buffer" : 0,
            "byteLength" : 2592,
            "byteOffset" : 140832,
            "target" : 34962
        },
        {
            "buffer" : 0,
            "byteLength" : 1728,
            "byteOffset" : 143424,
            "target" : 34962
        },
        {
            "buffer" : 0,
            "byteLength" : 2592,
            "byteOffset" : 145152,
            "target" : 34962
        },
        {
            "buffer" : 0,
            "byteLength" : 2592,
            "byteOffset" : 147744,
            "target" : 34962
        },
        {
            "buffer" : 0,
            "byteLength" : 1728,
            "byteOffset" : 150336,
            "target" : 34962
        },
        {
            "buffer" : 0,
            "byteLength" : 2592,
            "byteOffset" : 152064,
            "target" : 34962
        },
        {
            "buffer" : 0,
            "byteLength" : 648,
            "byteOffset" : 154656,
            "target" : 34963
        },
        {
            "buffer" : 0,
            "byteLength" : 2592,
            "byteOffset" : 155304,
            "target" : 34962
        },
        {
            "buffer" : 0,
            "byteLength" : 1728,
            "byteOffset" : 157896,
            "target" : 34962
        },
        {
            "buffer" : 0,
            "byteLength" : 2592,
            "byteOffset" : 159624,
            "target" : 34962
        },
        {
            "buffer" : 0,
            "byteLength" : 2592,
            "byteOffset" : 162216,
            "target" : 34962
        },
        {
            "buffer" : 0,
            "byteLength" : 1728,
            "byteOffset" : 164808,
            "target" : 34962
        },
        {
            "buffer" : 0,
            "byteLength" : 2592,
            "byteOffset" : 166536,
            "target" : 34962
        },
        {
            "buffer" : 0,
            "byteLength" : 2592,
            "byteOffset" : 169128,
            "target" : 34962
        },
        {
            "buffer" : 0,
            "byteLength" : 1728,
            "byteOffset" : 171720,
            "target" : 34962
        },
        {
            "buffer" : 0,
            "byteLength" : 2592,
            "byteOffset" : 173448,
            "target" : 34962
        },
        {
            "buffer" : 0,
            "byteLength" : 2592,
            "byteOffset" : 176040,
            "target" : 34962
        },
        {
            "buffer" : 0,
            "byteLength" : 1728,
            "byteOffset" : 178632,
            "target" : 34962
        },
        {
            "buffer" : 0,
            "byteLength" : 2592,
            "byteOffset" : 180360,
            "target" : 34962
        },
        {
            "buffer" : 0,
            "byteLength" : 2592,
            "byteOffset" : 182952,
            "target" : 34962
        },
        {
            "buffer" : 0,
            "byteLength" : 1728,
            "byteOffset" : 185544,
            "target" : 34962
        },
        {
            "buffer" : 0,
            "byteLength" : 2592,
            "byteOffset" : 187272,
            "target" : 34962
        },
        {
            "buffer" : 0,
            "byteLength" : 2592,
            "byteOffset" : 189864,
            "target" : 34962
        },
        {
            "buffer" : 0,
            "byteLength" : 1728,
            "byteOffset" : 192456,
            "target" : 34962
        },
        {
            "buffer" : 0,
            "byteLength" : 2592,
            "byteOffset" : 194184,
            "target" : 34962
        },
        {
            "buffer" : 0,
            "byteLength" : 2592,
            "byteOffset" : 196776,
            "target" : 34962
        },
        {
            "buffer" : 0,
            "byteLength" : 1728,
            "byteOffset" : 199368,
            "target" : 34962
        },
        {
            "buffer" : 0,
            "byteLength" : 2592,
            "byteOffset" : 201096,
            "target" : 34962
        },
        {
            "buffer" : 0,
            "byteLength" : 2592,
            "byteOffset" : 203688,
            "target" : 34962
        },
        {
            "buffer" : 0,
            "byteLength" : 1728,
            "byteOffset" : 206280,
            "target" : 34962
        },
        {
            "buffer" : 0,
            "byteLength" : 2592,
            "byteOffset" : 208008,
            "target" : 34962
        },
        {
            "buffer" : 0,
            "byteLength" : 2592,
            "byteOffset" : 210600,
            "target" : 34962
        },
        {
            "buffer" : 0,
            "byteLength" : 1728,
            "byteOffset" : 213192,
            "target" : 34962
        },
        {
            "buffer" : 0,
            "byteLength" : 2592,
            "byteOffset" : 214920,
            "target" : 34962
        },
        {
            "buffer" : 0,
            "byteLength" : 1152,
            "byteOffset" : 217512,
            "target" : 34962
        },
        {
            "buffer" : 0,
            "byteLength" : 768,
            "byteOffset" : 218664,
            "target" : 34962
        },
        {
            "buffer" : 0,
            "byteLength" : 1152,
            "byteOffset" : 219432,
            "target" : 34962
        },
        {
            "buffer" : 0,
            "byteLength" : 360,
            "byteOffset" : 220584,
            "target" : 34963
        },
        {
            "buffer" : 0,
            "byteLength" : 5760,
            "byteOffset" : 220944,
            "target" : 34962
        },
        {
            "buffer" : 0,
            "byteLength" : 3840,
            "byteOffset" : 226704,
            "target" : 34962
        },
        {
            "buffer" : 0,
            "byteLength" : 5760,
            "byteOffset" : 230544,
            "target" : 34962
        },
        {
            "buffer" : 0,
            "byteLength" : 1344,
            "byteOffset" : 236304,
            "target" : 34963
        },
        {
            "buffer" : 0,
            "byteLength" : 2592,
            "byteOffset" : 237648,
            "target" : 34962
        },
        {
            "buffer" : 0,
            "byteLength" : 1728,
            "byteOffset" : 240240,
            "target" : 34962
        },
        {
            "buffer" : 0,
            "byteLength" : 2592,
            "byteOffset" : 241968,
            "target" : 34962
        },
        {
            "buffer" : 0,
            "byteLength" : 648,
            "byteOffset" : 244560,
            "target" : 34963
        },
        {
            "buffer" : 0,
            "byteLength" : 1152,
            "byteOffset" : 245208,
            "target" : 34962
        },
        {
            "buffer" : 0,
            "byteLength" : 768,
            "byteOffset" : 246360,
            "target" : 34962
        },
        {
            "buffer" : 0,
            "byteLength" : 1152,
            "byteOffset" : 247128,
            "target" : 34962
        },
        {
            "buffer" : 0,
            "byteLength" : 1152,
            "byteOffset" : 248280,
            "target" : 34962
        },
        {
            "buffer" : 0,
            "byteLength" : 768,
            "byteOffset" : 249432,
            "target" : 34962
        },
        {
            "buffer" : 0,
            "byteLength" : 1152,
            "byteOffset" : 250200,
            "target" : 34962
        },
        {
            "buffer" : 0,
            "byteLength" : 2592,
            "byteOffset" : 251352,
            "target" : 34962
        },
        {
            "buffer" : 0,
            "byteLength" : 1728,
            "byteOffset" : 253944,
            "target" : 34962
        },
        {
            "buffer" : 0,
            "byteLength" : 2592,
            "byteOffset" : 255672,
            "target" : 34962
        },
        {
            "buffer" : 0,
            "byteLength" : 648,
            "byteOffset" : 258264,
            "target" : 34963
        },
        {
            "buffer" : 0,
            "byteLength" : 1152,
            "byteOffset" : 258912,
            "target" : 34962
        },
        {
            "buffer" : 0,
            "byteLength" : 768,
            "byteOffset" : 260064,
            "target" : 34962
        },
        {
            "buffer" : 0,
            "byteLength" : 1152,
            "byteOffset" : 260832,
            "target" : 34962
        },
        {
            "buffer" : 0,
            "byteLength" : 1152,
            "byteOffset" : 261984,
            "target" : 34962
        },
        {
            "buffer" : 0,
            "byteLength" : 768,
            "byteOffset" : 263136,
            "target" : 34962
        },
        {
            "buffer" : 0,
            "byteLength" : 1152,
            "byteOffset" : 263904,
            "target" : 34962
        },
        {
            "buffer" : 0,
            "byteLength" : 2592,
            "byteOffset" : 265056,
            "target" : 34962
        },
        {
            "buffer" : 0,
            "byteLength" : 1728,
            "byteOffset" : 267648,
            "target" : 34962
        },
        {
            "buffer" : 0,
            "byteLength" : 2592,
            "byteOffset" : 269376,
            "target" : 34962
        },
        {
            "buffer" : 0,
            "byteLength" : 648,
            "byteOffset" : 271968,
            "target" : 34963
        },
        {
            "buffer" : 0,
            "byteLength" : 1152,
            "byteOffset" : 272616,
            "target" : 34962
        },
        {
            "buffer" : 0,
            "byteLength" : 768,
            "byteOffset" : 273768,
            "target" : 34962
        },
        {
            "buffer" : 0,
            "byteLength" : 1152,
            "byteOffset" : 274536,
            "target" : 34962
        },
        {
            "buffer" : 0,
            "byteLength" : 1152,
            "byteOffset" : 275688,
            "target" : 34962
        },
        {
            "buffer" : 0,
            "byteLength" : 768,
            "byteOffset" : 276840,
            "target" : 34962
        },
        {
            "buffer" : 0,
            "byteLength" : 1152,
            "byteOffset" : 277608,
            "target" : 34962
        },
        {
            "buffer" : 0,
            "byteLength" : 2592,
            "byteOffset" : 278760,
            "target" : 34962
        },
        {
            "buffer" : 0,
            "byteLength" : 1728,
            "byteOffset" : 281352,
            "target" : 34962
        },
        {
            "buffer" : 0,
            "byteLength" : 2592,
            "byteOffset" : 283080,
            "target" : 34962
        },
        {
            "buffer" : 0,
            "byteLength" : 648,
            "byteOffset" : 285672,
            "target" : 34963
        },
        {
            "buffer" : 0,
            "byteLength" : 1152,
            "byteOffset" : 286320,
            "target" : 34962
        },
        {
            "buffer" : 0,
            "byteLength" : 768,
            "byteOffset" : 287472,
            "target" : 34962
        },
        {
            "buffer" : 0,
            "byteLength" : 1152,
            "byteOffset" : 288240,
            "target" : 34962
        },
        {
            "buffer" : 0,
            "byteLength" : 1152,
            "byteOffset" : 289392,
            "target" : 34962
        },
        {
            "buffer" : 0,
            "byteLength" : 768,
            "byteOffset" : 290544,
            "target" : 34962
        },
        {
            "buffer" : 0,
            "byteLength" : 1152,
            "byteOffset" : 291312,
            "target" : 34962
        }
    ],
    "buffers" : [
        {
            "byteLength" : 292464,
            "uri" : "06_Animation_Corral.bin"
        }
    ]
}
